<svg height="512pt" viewBox="0 -22 512 512" width="512pt" xmlns="http://www.w3.org/2000/svg"><path d="m423.5 33.5h-401c-8.285156 0-15 6.714844-15 15v371c0 8.285156 6.714844 15 15 15h401c8.285156 0 15-6.714844 15-15v-371c0-8.285156-6.714844-15-15-15zm0 0" fill="#845036"/><path d="m393.5 460.5h-341c-8.285156 0-15-6.714844-15-15v-423c0-8.285156 6.714844-15 15-15h341c8.285156 0 15 6.714844 15 15v423c0 8.285156-6.714844 15-15 15zm0 0" fill="#fff"/><path d="m348.5 37.5h30v261.753906h-30zm0 0" fill="#efefef"/><path d="m282.5 357.742188-75.769531-101.761719c-11.996094-16.109375-36.128907-16.109375-48.125 0l-91.105469 122.351562v65.332031h286.832031zm0 0" fill="#83cc9a"/><path d="m354.328125 443.671875h-30l-71.828125-85.933594-36.019531-48.378906c12.429687-6.300781 19.410156-14.210937 19.410156-14.210937l46.609375 62.589843zm0 0" fill="#4aa05e"/><path d="m235.890625 295.148438s-43.390625 49.140624-106.449219 0l29.160156-39.167969c12-16.109375 36.128907-16.109375 48.128907 0zm0 0" fill="#f7e1aa"/><path d="m235.890625 295.148438s-6.980469 7.910156-19.410156 14.210937l-10.589844-14.210937-29.160156-39.167969c-1.917969-2.582031-4.257813-4.894531-6.910157-6.71875-.699218-.492188-1.421874-.953125-2.148437-1.371094 12.648437-7.289063 29.609375-4.589844 39.058594 8.089844zm0 0" fill="#eabf68"/><path d="m404.179688 11.820312-25.679688 25.679688h-311l-25.601562-25.601562c2.710937-2.71875 6.460937-4.398438 10.601562-4.398438h341.171875c4.097656 0 7.808594 1.640625 10.507813 4.320312zm0 0" fill="#c4946c"/><path d="m67.5 37.5v393l-25.601562 25.601562c-2.71875-2.710937-4.398438-6.460937-4.398438-10.601562v-423c0-4.140625 1.679688-7.890625 4.398438-10.601562zm0 0" fill="#a8704a"/><path d="m404.179688 456.179688c-2.699219 2.679687-6.410157 4.320312-10.507813 4.320312h-341.171875c-4.140625 0-7.890625-1.679688-10.601562-4.398438l25.601562-25.601562h311zm0 0" fill="#c4946c"/><path d="m408.5 20.269531v427.460938c-.449219 3.050781-1.820312 5.789062-3.820312 7.949219-.160157.171874-.320313.339843-.5.5l-25.679688-25.679688v-393l25.679688-25.679688c.179687.160157.339843.328126.5.5 2 2.160157 3.371093 4.898438 3.820312 7.949219zm0 0" fill="#a8704a"/><path d="m260.5 201.730469-99.5-.230469c0-17.671875 14.328125-32 32-32h2.5v-3c0-15.1875 12.3125-27.5 27.5-27.5 6.066406 0 11.675781 1.964844 16.222656 5.289062 0 0 21.277344 22.175782 21.277344 57.441407zm0 0" fill="#d8d8d8"/><path d="m283 218.5c-27.339844 0-49.5-22.160156-49.5-49.5s22.160156-49.5 49.5-49.5 49.5 22.160156 49.5 49.5-22.160156 49.5-49.5 49.5zm0 0" fill="#f2d67c"/><path d="m459.5 400.5h-135c-24.851562 0-45-20.148438-45-45v-55c0-24.851562 20.148438-45 45-45h135c24.851562 0 45 20.148438 45 45v55c0 24.851562-20.148438 45-45 45zm0 0" fill="#ef9867"/><g fill="#d16346"><path d="m369 356.042969-40.152344-23.738281c-3.273437-1.9375-3.261718-6.675782.011719-8.609376l40.132813-23.738281c3.335937-1.96875 7.507812.433594 7.507812 4.304688v47.476562c0 3.871094-4.167969 6.273438-7.5 4.304688zm0 0"/><path d="m415 356.042969 40.152344-23.738281c3.273437-1.9375 3.261718-6.675782-.011719-8.609376l-40.132813-23.738281c-3.335937-1.96875-7.507812.433594-7.507812 4.304688v47.476562c0 3.871094 4.167969 6.273438 7.5 4.304688zm0 0"/><path d="m504.5 300.5v55c0 24.851562-20.148438 45-45 45h-30c24.851562 0 45-20.148438 45-45v-55c0-24.851562-20.148438-45-45-45h30c24.851562 0 45 20.148438 45 45zm0 0"/></g><path d="m332.5 169c0 13.671875-5.539062 26.039062-14.5 35s-21.328125 14.5-35 14.5c-5.230469 0-10.269531-.808594-15-2.320312 7.640625-2.417969 14.46875-6.648438 20-12.179688 8.960938-8.960938 14.5-21.328125 14.5-35s-5.539062-26.039062-14.5-35c-5.53125-5.53125-12.359375-9.761719-20-12.179688 4.730469-1.511718 9.769531-2.320312 15-2.320312 13.671875 0 26.039062 5.539062 35 14.5s14.5 21.328125 14.5 35zm0 0" fill="#e2b061"/><path d="m283 112c-18.550781 0-35.054688 8.910156-45.46875 22.675781-4.527344-2.074219-9.445312-3.175781-14.53125-3.175781-17.871094 0-32.660156 13.464844-34.746094 30.78125-19.554687 2.355469-34.753906 19.042969-34.753906 39.21875 0 4.132812 3.34375 7.488281 7.480469 7.5l81.679687.230469c10.324219 10.351562 24.597656 16.769531 40.339844 16.769531 31.429688 0 57-25.570312 57-57s-25.570312-57-57-57zm-113.335938 82.023438c3.171876-9.863282 12.433594-17.023438 23.335938-17.023438h2.5c4.144531 0 7.5-3.355469 7.5-7.5v-3c0-11.027344 8.972656-20 20-20 2.464844 0 4.855469.453125 7.101562 1.308594-2.636718 6.554687-4.101562 13.703125-4.101562 21.191406 0 9.042969 2.125 17.597656 5.890625 25.199219zm113.335938 16.976562c-23.160156 0-42-18.839844-42-42s18.839844-42 42-42 42 18.839844 42 42-18.839844 42-42 42zm0 0"/><path d="m459.5 248h-13.5v-199.5c0-12.40625-10.09375-22.5-22.5-22.5h-7.5v-3.5c0-12.40625-10.09375-22.5-22.5-22.5h-341c-12.40625 0-22.5 10.09375-22.5 22.5v3.5h-7.5c-12.40625 0-22.5 10.09375-22.5 22.5v371c0 12.40625 10.09375 22.5 22.5 22.5h7.5v3.5c0 6.054688 2.410156 11.554688 6.3125 15.605469.09375.101562.179688.207031.277344.304687s.199218.183594.304687.273438c4.046875 3.90625 9.550781 6.316406 15.605469 6.316406h55.5c4.144531 0 7.5-3.355469 7.5-7.5s-3.355469-7.5-7.5-7.5h-52.394531l15-15h304.785156l15 15h-247.390625c-4.144531 0-7.5 3.355469-7.5 7.5s3.355469 7.5 7.5 7.5h250.5c12.40625 0 22.5-10.09375 22.5-22.5v-3.5h7.5c12.40625 0 22.5-10.09375 22.5-22.5v-11.5h13.5c28.949219 0 52.5-23.550781 52.5-52.5v-55c0-28.949219-23.550781-52.5-52.5-52.5zm-36-207c4.136719 0 7.5 3.363281 7.5 7.5v199.5h-15v-207zm-99 207c-28.949219 0-52.5 23.550781-52.5 52.5v30.582031l-30.105469-40.433593c-.003906-.003907-.007812-.011719-.015625-.019532l-29.132812-39.125c-7.148438-9.601562-18.113282-15.105468-30.082032-15.105468-11.964843 0-22.925781 5.503906-30.074218 15.105468l-77.589844 104.199219v-310.703125h296v175.5c0 4.144531 3.355469 7.5 7.5 7.5s7.5-3.355469 7.5-7.5v-179.894531l15-15v222.394531zm76.5 160v34.394531l-15-15v-19.394531zm-30 15h-296v-42.179688l56-75.207031c20.433594 14.25 38.871094 18.84375 54.152344 18.84375 9.011718 0 16.925781-1.601562 23.5-3.757812 11.710937-3.839844 20.621094-9.855469 26.195312-14.398438l37.171875 49.921875c.386719 28.613282 23.773438 51.777344 52.480469 51.777344h46.5zm-326 19.394531v-416.789062l15 15v386.785156zm330.394531-412.394531h-304.789062l-15-15h334.785156zm-235.429687 263.574219 24.65625-33.113281c4.289062-5.757813 10.863281-9.0625 18.046875-9.0625 7.179687 0 13.757812 3.300781 18.046875 9.0625l25.175781 33.808593c-4.359375 3.636719-11.847656 8.875-21.914063 12.179688-20.503906 6.726562-42.011718 2.386719-64.011718-12.875zm-117.464844 133.425781c-4.136719 0-7.5-3.363281-7.5-7.5v-371c0-4.136719 3.363281-7.5 7.5-7.5h7.5v386zm408.5-7.5c0 4.136719-3.363281 7.5-7.5 7.5h-7.5v-19h15zm66-64c0 20.679688-16.820312 37.5-37.5 37.5h-135c-20.679688 0-37.5-16.820312-37.5-37.5v-55c0-20.679688 16.820312-37.5 37.5-37.5h135c20.679688 0 37.5 16.820312 37.5 37.5zm0 0"/><path d="m377.703125 293.398438c-3.875-2.210938-8.671875-2.171876-12.527344.105468l-40.128906 23.734375c-3.851563 2.273438-6.148437 6.300781-6.148437 10.769531 0 4.464844 2.292968 8.480469 6.132812 10.753907l40.152344 23.734375c1.957031 1.15625 4.15625 1.734375 6.355468 1.734375 2.128907 0 4.257813-.542969 6.164063-1.628907 3.886719-2.21875 6.296875-6.378906 6.296875-10.867187v-47.472656c0-4.484375-2.414062-8.648438-6.296875-10.863281zm-8.703125 53.929687-32.6875-19.324219 32.6875-19.335937zm0 0"/><path d="m458.960938 317.238281-40.140626-23.738281c-3.847656-2.273438-8.644531-2.3125-12.519531-.101562-3.886719 2.214843-6.300781 6.378906-6.300781 10.863281v47.476562c0 4.484375 2.414062 8.648438 6.296875 10.863281 1.90625 1.089844 4.035156 1.628907 6.167969 1.628907 2.195312 0 4.398437-.578125 6.351562-1.730469 0-.003906 0-.003906.003906-.003906l40.148438-23.734375c3.839844-2.269531 6.132812-6.289063 6.132812-10.753907 0-4.46875-2.296874-8.496093-6.140624-10.769531zm-43.960938 30.089844v-38.660156l32.691406 19.335937zm0 0"/></svg>