<svg height="682pt" viewBox="-21 -91 682.66669 682" width="682pt" xmlns="http://www.w3.org/2000/svg"><path d="m639.984375 7.53125c-.335937-6.617188-5.796875-11.863281-12.484375-11.863281h-615c-6.6875 0-12.148438 5.246093-12.484375 11.863281-.015625.214844-.015625.425781-.015625.640625v474.988281c0 6.90625 5.601562 12.507813 12.5 12.507813h615c6.898438 0 12.5-5.601563 12.5-12.507813v-474.988281c0-.214844 0-.425781-.015625-.640625zm-24.984375 463.125h-590v-367.457031h590zm0-392.464844h-590v-57.667968h590zm0 0"/><path d="m213.75 62.722656h-100c-6.90625 0-12.5-5.597656-12.5-12.5 0-6.910156 5.59375-12.503906 12.5-12.503906h100c6.90625 0 12.5 5.59375 12.5 12.503906 0 6.902344-5.59375 12.5-12.5 12.5zm0 0"/><path d="m63.773438 62.722656c-6.902344 0-12.503907-5.597656-12.503907-12.5 0-6.910156 5.589844-12.503906 12.496094-12.503906h.007813c6.90625 0 12.5 5.59375 12.5 12.503906 0 6.902344-5.59375 12.5-12.5 12.5zm0 0"/><path d="m558.75 176.722656h-50v-11.257812c0-13.789063-11.210938-25.003906-25-25.003906h-327.5c-13.789062 0-25 11.214843-25 25.003906v11.257812h-50c-13.789062 0-25 11.214844-25 25.003906v127.539063c0 13.792969 11.210938 25.007813 25 25.007813h50v11.257812c0 13.789062 11.210938 25.003906 25 25.003906h327.5c13.789062 0 25-11.214844 25-25.003906v-11.257812h50c13.789062 0 25-11.214844 25-25.007813v-127.539063c0-13.789062-11.210938-25.003906-25-25.003906zm-427.5 152.542969h-50v-127.539063h50l.015625 127.539063s0 0-.015625 0zm352.515625 36.265625s0 0-.015625 0h-327.5v-200.066406h327.5v36.265625l.015625 127.886719zm74.984375-36.265625h-50v-127.539063h50l.015625 127.539063s0 0-.015625 0zm0 0"/><path d="m230.800781 314.226562c-3.125 0-6.253906-1.167968-8.683593-3.511718l-37.5-36.226563c-2.4375-2.355469-3.816407-5.605469-3.816407-8.992187 0-3.394532 1.378907-6.640625 3.816407-9l37.5-36.226563c4.972656-4.792969 12.878906-4.65625 17.679687.308594 4.792969 4.972656 4.65625 12.886719-.308594 17.679687l-28.195312 27.238282 28.195312 27.230468c4.964844 4.800782 5.101563 12.714844.308594 17.679688-2.457031 2.539062-5.726563 3.820312-8.996094 3.820312zm0 0"/><path d="m410.449219 314.226562c-3.269531 0-6.539063-1.28125-8.996094-3.820312-4.792969-4.964844-4.65625-12.882812.308594-17.679688l28.195312-27.234374-28.195312-27.234376c-4.964844-4.792968-5.101563-12.714843-.308594-17.679687 4.800781-4.964844 12.710937-5.101563 17.679687-.308594l37.5 36.226563c2.4375 2.359375 3.816407 5.605468 3.816407 8.996094 0 3.390624-1.378907 6.640624-3.816407 8.996093l-37.5 36.226563c-2.429687 2.34375-5.558593 3.511718-8.683593 3.511718zm0 0"/><path d="m320.023438 435.648438c-6.902344 0-12.503907-5.597657-12.503907-12.5 0-6.90625 5.589844-12.507813 12.496094-12.507813h.007813c6.90625 0 12.5 5.601563 12.5 12.507813 0 6.902343-5.59375 12.5-12.5 12.5zm0 0"/><path d="m370.023438 435.648438c-6.902344 0-12.503907-5.597657-12.503907-12.5 0-6.90625 5.589844-12.507813 12.496094-12.507813h.007813c6.90625 0 12.5 5.601563 12.5 12.507813 0 6.902343-5.59375 12.5-12.5 12.5zm0 0"/><path d="m270.023438 435.648438c-6.902344 0-12.503907-5.597657-12.503907-12.5 0-6.90625 5.589844-12.507813 12.496094-12.507813h.007813c6.90625 0 12.5 5.601563 12.5 12.507813 0 6.902343-5.59375 12.5-12.5 12.5zm0 0"/></svg>