<svg height="512pt" viewBox="0 -22 512 512" width="512pt" xmlns="http://www.w3.org/2000/svg"><path d="m283 112c-18.550781 0-35.054688 8.910156-45.46875 22.675781-4.527344-2.074219-9.445312-3.175781-14.53125-3.175781-17.871094 0-32.660156 13.464844-34.746094 30.78125-19.554687 2.355469-34.753906 19.042969-34.753906 39.21875 0 4.132812 3.34375 7.488281 7.480469 7.5l81.679687.230469c10.324219 10.351562 24.597656 16.769531 40.339844 16.769531 31.429688 0 57-25.570312 57-57s-25.570312-57-57-57zm-113.335938 82.023438c3.171876-9.863282 12.433594-17.023438 23.335938-17.023438h2.5c4.144531 0 7.5-3.355469 7.5-7.5v-3c0-11.027344 8.972656-20 20-20 2.464844 0 4.855469.453125 7.101562 1.308594-2.636718 6.554687-4.101562 13.703125-4.101562 21.191406 0 9.042969 2.125 17.597656 5.890625 25.199219zm113.335938 16.976562c-23.160156 0-42-18.839844-42-42s18.839844-42 42-42 42 18.839844 42 42-18.839844 42-42 42zm0 0"/><path d="m459.5 248h-13.5v-199.5c0-12.40625-10.09375-22.5-22.5-22.5h-7.5v-3.5c0-12.40625-10.09375-22.5-22.5-22.5h-341c-12.40625 0-22.5 10.09375-22.5 22.5v3.5h-7.5c-12.40625 0-22.5 10.09375-22.5 22.5v371c0 12.40625 10.09375 22.5 22.5 22.5h7.5v3.5c0 6.054688 2.410156 11.554688 6.3125 15.605469.09375.101562.179688.207031.277344.304687s.199218.183594.304687.273438c4.046875 3.90625 9.550781 6.316406 15.605469 6.316406h55.5c4.144531 0 7.5-3.355469 7.5-7.5s-3.355469-7.5-7.5-7.5h-52.394531l15-15h304.785156l15 15h-247.390625c-4.144531 0-7.5 3.355469-7.5 7.5s3.355469 7.5 7.5 7.5h250.5c12.40625 0 22.5-10.09375 22.5-22.5v-3.5h7.5c12.40625 0 22.5-10.09375 22.5-22.5v-11.5h13.5c28.949219 0 52.5-23.550781 52.5-52.5v-55c0-28.949219-23.550781-52.5-52.5-52.5zm-36-207c4.136719 0 7.5 3.363281 7.5 7.5v199.5h-15v-207zm-99 207c-28.949219 0-52.5 23.550781-52.5 52.5v30.582031l-30.105469-40.433593c-.003906-.003907-.007812-.011719-.015625-.019532l-29.132812-39.125c-7.148438-9.601562-18.113282-15.105468-30.082032-15.105468-11.964843 0-22.925781 5.503906-30.074218 15.105468l-77.589844 104.199219v-310.703125h296v175.5c0 4.144531 3.355469 7.5 7.5 7.5s7.5-3.355469 7.5-7.5v-179.894531l15-15v222.394531zm76.5 160v34.394531l-15-15v-19.394531zm-30 15h-296v-42.179688l56-75.207031c20.433594 14.25 38.871094 18.84375 54.152344 18.84375 9.011718 0 16.925781-1.601562 23.5-3.757812 11.710937-3.839844 20.621094-9.855469 26.195312-14.398438l37.171875 49.921875c.386719 28.613282 23.773438 51.777344 52.480469 51.777344h46.5zm-326 19.394531v-416.789062l15 15v386.785156zm330.394531-412.394531h-304.789062l-15-15h334.785156zm-235.429687 263.574219 24.65625-33.113281c4.289062-5.757813 10.863281-9.0625 18.046875-9.0625 7.179687 0 13.757812 3.300781 18.046875 9.0625l25.175781 33.808593c-4.359375 3.636719-11.847656 8.875-21.914063 12.179688-20.503906 6.726562-42.011718 2.386719-64.011718-12.875zm-117.464844 133.425781c-4.136719 0-7.5-3.363281-7.5-7.5v-371c0-4.136719 3.363281-7.5 7.5-7.5h7.5v386zm408.5-7.5c0 4.136719-3.363281 7.5-7.5 7.5h-7.5v-19h15zm66-64c0 20.679688-16.820312 37.5-37.5 37.5h-135c-20.679688 0-37.5-16.820312-37.5-37.5v-55c0-20.679688 16.820312-37.5 37.5-37.5h135c20.679688 0 37.5 16.820312 37.5 37.5zm0 0"/><path d="m377.703125 293.398438c-3.875-2.210938-8.671875-2.171876-12.527344.105468l-40.128906 23.734375c-3.851563 2.273438-6.148437 6.300781-6.148437 10.769531 0 4.464844 2.292968 8.480469 6.132812 10.753907l40.152344 23.734375c1.957031 1.15625 4.15625 1.734375 6.355468 1.734375 2.128907 0 4.257813-.542969 6.164063-1.628907 3.886719-2.21875 6.296875-6.378906 6.296875-10.867187v-47.472656c0-4.484375-2.414062-8.648438-6.296875-10.863281zm-8.703125 53.929687-32.6875-19.324219 32.6875-19.335937zm0 0"/><path d="m458.960938 317.238281-40.140626-23.738281c-3.847656-2.273438-8.644531-2.3125-12.519531-.101562-3.886719 2.214843-6.300781 6.378906-6.300781 10.863281v47.476562c0 4.484375 2.414062 8.648438 6.296875 10.863281 1.90625 1.089844 4.035156 1.628907 6.167969 1.628907 2.195312 0 4.398437-.578125 6.351562-1.730469 0-.003906 0-.003906.003906-.003906l40.148438-23.734375c3.839844-2.269531 6.132812-6.289063 6.132812-10.753907 0-4.46875-2.296874-8.496093-6.140624-10.769531zm-43.960938 30.089844v-38.660156l32.691406 19.335937zm0 0"/></svg>