<svg xmlns="http://www.w3.org/2000/svg" height="512pt" version="1.1" viewBox="0 0 512 512" width="512pt">
<g id="surface1">
<path d="M 207.90625 384.25 L 304.09375 384.25 L 304.09375 504.484375 L 207.90625 504.484375 Z M 207.90625 384.25 " style=" stroke:none;fill-rule:nonzero;fill:rgb(60.784314%,56.078431%,58.039216%);fill-opacity:1;" />
<path d="M 207.90625 384.25 L 304.09375 384.25 L 304.09375 432.34375 L 207.90625 432.34375 Z M 207.90625 384.25 " style=" stroke:none;fill-rule:nonzero;fill:rgb(55.294118%,49.803922%,52.156863%);fill-opacity:1;" />
<path d="M 488.453125 400.28125 L 23.546875 400.28125 C 14.691406 400.28125 7.515625 393.105469 7.515625 384.25 L 7.515625 23.546875 C 7.515625 14.691406 14.691406 7.515625 23.546875 7.515625 L 488.453125 7.515625 C 497.308594 7.515625 504.484375 14.691406 504.484375 23.546875 L 504.484375 384.25 C 504.484375 393.105469 497.308594 400.28125 488.453125 400.28125 Z M 488.453125 400.28125 " style=" stroke:none;fill-rule:nonzero;fill:rgb(60.784314%,56.078431%,58.039216%);fill-opacity:1;" />
<path d="M 39.578125 384.25 L 39.578125 23.546875 C 39.578125 14.691406 46.753906 7.515625 55.609375 7.515625 L 23.546875 7.515625 C 14.691406 7.515625 7.515625 14.691406 7.515625 23.546875 L 7.515625 384.25 C 7.515625 393.105469 14.691406 400.28125 23.546875 400.28125 L 55.609375 400.28125 C 46.753906 400.28125 39.578125 393.105469 39.578125 384.25 Z M 39.578125 384.25 " style=" stroke:none;fill-rule:nonzero;fill:rgb(55.294118%,49.803922%,52.156863%);fill-opacity:1;" />
<path d="M 7.515625 55.609375 L 504.484375 55.609375 L 504.484375 352.1875 L 7.515625 352.1875 Z M 7.515625 55.609375 " style=" stroke:none;fill-rule:nonzero;fill:rgb(94.509804%,93.72549%,94.117647%);fill-opacity:1;" />
<path d="M 7.515625 55.609375 L 39.578125 55.609375 L 39.578125 352.1875 L 7.515625 352.1875 Z M 7.515625 55.609375 " style=" stroke:none;fill-rule:nonzero;fill:rgb(91.764706%,90.588235%,90.980392%);fill-opacity:1;" />
<path d="M 448.375 151.796875 C 448.375 173.929688 430.433594 191.875 408.296875 191.875 C 386.164062 191.875 368.21875 173.929688 368.21875 151.796875 C 368.21875 129.660156 386.164062 111.71875 408.296875 111.71875 C 430.433594 111.71875 448.375 129.660156 448.375 151.796875 Z M 448.375 151.796875 " style=" stroke:none;fill-rule:nonzero;fill:rgb(100%,90.588235%,50.980392%);fill-opacity:1;" />
<path d="M 391.265625 151.796875 C 391.265625 133.667969 403.304688 118.359375 419.820312 113.40625 C 416.167969 112.3125 412.304688 111.71875 408.296875 111.71875 C 386.164062 111.71875 368.21875 129.664062 368.21875 151.796875 C 368.21875 173.929688 386.164062 191.875 408.296875 191.875 C 412.304688 191.875 416.167969 191.28125 419.820312 190.183594 C 403.304688 185.234375 391.265625 169.925781 391.265625 151.796875 Z M 391.265625 151.796875 " style=" stroke:none;fill-rule:nonzero;fill:rgb(100%,84.313725%,18.039216%);fill-opacity:1;" />
<path d="M 173.875 270.785156 C 151.53125 256.421875 139.203125 191.316406 139.203125 191.316406 C 139.203125 191.316406 203.550781 175.515625 225.894531 189.878906 C 248.234375 204.242188 254.703125 234 240.335938 256.34375 C 225.972656 278.683594 196.214844 285.152344 173.875 270.785156 Z M 173.875 270.785156 " style=" stroke:none;fill-rule:nonzero;fill:rgb(65.882353%,87.843137%,34.901961%);fill-opacity:1;" />
<path d="M 186.464844 254.753906 C 170.398438 244.421875 159.507812 207.84375 154.660156 188.117188 C 145.421875 189.789062 139.203125 191.316406 139.203125 191.316406 C 139.203125 191.316406 151.53125 256.421875 173.875 270.785156 C 196.214844 285.152344 225.972656 278.683594 240.335938 256.34375 C 241.378906 254.722656 242.296875 253.0625 243.121094 251.375 C 227.417969 264.363281 204.519531 266.363281 186.464844 254.753906 Z M 186.464844 254.753906 " style=" stroke:none;fill-rule:nonzero;fill:rgb(57.254902%,85.098039%,18.823529%);fill-opacity:1;" />
<path d="M 297.570312 243.011719 C 319.328125 227.773438 384.25 241.023438 384.25 241.023438 C 384.25 241.023438 374.503906 306.5625 352.75 321.800781 C 330.992188 337.039062 301.003906 331.75 285.765625 309.996094 C 270.53125 288.238281 275.8125 258.25 297.570312 243.011719 Z M 297.570312 243.011719 " style=" stroke:none;fill-rule:nonzero;fill:rgb(65.882353%,87.843137%,34.901961%);fill-opacity:1;" />
<path d="M 368.257812 238.375 C 363.910156 258.773438 354.636719 292.933594 339.703125 303.390625 C 321.210938 316.34375 296.777344 314.460938 280.5 300.246094 C 281.851562 303.617188 283.59375 306.890625 285.765625 309.996094 C 301.003906 331.75 330.992188 337.035156 352.75 321.796875 C 374.503906 306.5625 384.25 241.019531 384.25 241.019531 C 384.25 241.019531 377.785156 239.703125 368.257812 238.375 Z M 368.257812 238.375 " style=" stroke:none;fill-rule:nonzero;fill:rgb(57.254902%,85.098039%,18.823529%);fill-opacity:1;" />
<path d="M 488.453125 0 L 23.546875 0 C 10.5625 0 0 10.5625 0 23.546875 L 0 384.25 C 0 397.234375 10.5625 407.796875 23.546875 407.796875 L 200.390625 407.796875 L 200.390625 496.96875 L 184.859375 496.96875 C 180.710938 496.96875 177.347656 500.335938 177.347656 504.484375 C 177.347656 508.636719 180.710938 512 184.859375 512 L 328.140625 512 C 332.289062 512 335.65625 508.636719 335.65625 504.484375 C 335.65625 500.335938 332.289062 496.96875 328.140625 496.96875 L 311.609375 496.96875 L 311.609375 407.796875 L 488.453125 407.796875 C 501.4375 407.796875 512 397.234375 512 384.25 L 512 23.546875 C 512 10.5625 501.4375 0 488.453125 0 Z M 23.546875 15.03125 L 488.453125 15.03125 C 493.148438 15.03125 496.96875 18.851562 496.96875 23.546875 L 496.96875 48.09375 L 15.03125 48.09375 L 15.03125 23.546875 C 15.03125 18.851562 18.851562 15.03125 23.546875 15.03125 Z M 296.578125 496.96875 L 215.421875 496.96875 L 215.421875 407.796875 L 296.578125 407.796875 Z M 488.453125 392.765625 L 23.546875 392.765625 C 18.851562 392.765625 15.03125 388.945312 15.03125 384.25 L 15.03125 359.703125 L 63.289062 359.703125 C 67.441406 359.703125 70.804688 356.339844 70.804688 352.1875 C 70.804688 348.035156 67.441406 344.671875 63.289062 344.671875 L 15.03125 344.671875 L 15.03125 63.125 L 496.96875 63.125 L 496.96875 344.671875 L 263.488281 344.671875 C 263.5 344.507812 263.515625 344.339844 263.515625 344.171875 L 263.515625 344.160156 C 263.515625 331.621094 269.25 320.785156 277.824219 311.578125 C 278.394531 312.496094 278.984375 313.410156 279.609375 314.308594 C 290.417969 329.734375 307.695312 337.996094 325.238281 337.996094 C 336.253906 337.996094 347.375 334.738281 357.058594 327.957031 C 380.777344 311.34375 390.636719 249.164062 391.683594 242.125 C 392.269531 238.175781 389.664062 234.457031 385.75 233.660156 C 378.78125 232.238281 316.976562 220.246094 293.257812 236.859375 C 273.617188 250.613281 265.59375 274.859375 271.4375 296.789062 C 268.609375 299.4375 265.949219 302.230469 263.511719 305.171875 L 263.511719 304.082031 C 263.511719 287.257812 258.386719 271.496094 248.480469 257.335938 C 262.613281 231.941406 254.738281 199.496094 229.957031 183.558594 C 205.601562 167.898438 144.316406 182.324219 137.410156 184.019531 C 133.53125 184.972656 131.074219 188.792969 131.820312 192.71875 C 133.140625 199.707031 145.449219 261.449219 169.808594 277.109375 C 178.890625 282.949219 189.226562 285.964844 199.773438 285.964844 C 203.734375 285.964844 207.726562 285.535156 211.691406 284.675781 C 222.082031 282.417969 231.386719 277.347656 238.785156 270.074219 C 244.675781 279.726562 248.484375 291.011719 248.484375 304.085938 L 248.484375 344.171875 C 248.484375 344.339844 248.496094 344.507812 248.507812 344.671875 L 99.359375 344.671875 C 95.210938 344.671875 91.847656 348.035156 91.847656 352.1875 C 91.847656 356.339844 95.210938 359.703125 99.359375 359.703125 L 496.96875 359.703125 L 496.96875 384.25 C 496.96875 388.945312 493.148438 392.765625 488.453125 392.765625 Z M 301.882812 249.167969 C 308.082031 244.824219 320.082031 243.234375 333.601562 243.234375 C 347.574219 243.234375 363.164062 244.933594 375.628906 247.058594 C 371.171875 271.535156 361.046875 306.8125 348.4375 315.644531 C 330.109375 328.480469 304.757812 324.011719 291.921875 305.683594 C 290.933594 304.273438 290.058594 302.816406 289.273438 301.332031 C 315.773438 281.160156 353.292969 271.476562 354.007812 271.292969 C 358.035156 270.285156 360.484375 266.207031 359.476562 262.179688 C 358.46875 258.152344 354.386719 255.703125 350.363281 256.710938 C 347.914062 257.324219 313.039062 266.292969 284.765625 286.066406 C 283.519531 272.070312 289.566406 257.792969 301.882812 249.167969 Z M 220.230469 229.792969 C 199.441406 215.238281 178.867188 208.972656 178 208.710938 C 174.027344 207.519531 169.847656 209.773438 168.652344 213.746094 C 167.453125 217.714844 169.707031 221.90625 173.675781 223.105469 C 174.175781 223.257812 207.644531 233.675781 229.640625 257.917969 C 224.039062 263.988281 216.734375 268.195312 208.5 269.984375 C 197.910156 272.289062 187.054688 270.328125 177.9375 264.464844 C 164.992188 256.140625 153.476562 221.289062 148.054688 197.007812 C 172.398438 191.863281 208.882812 187.875 221.832031 196.199219 C 238.191406 206.71875 244.453125 227.105469 237.863281 244.617188 C 232.722656 239.378906 226.847656 234.425781 220.230469 229.792969 Z M 220.230469 229.792969 " style=" stroke:none;fill-rule:nonzero;fill:rgb(0%,0%,0%);fill-opacity:1;" />
<path d="M 263.515625 31.5625 C 263.515625 35.710938 260.148438 39.078125 256 39.078125 C 251.851562 39.078125 248.484375 35.710938 248.484375 31.5625 C 248.484375 27.410156 251.851562 24.046875 256 24.046875 C 260.148438 24.046875 263.515625 27.410156 263.515625 31.5625 Z M 263.515625 31.5625 " style=" stroke:none;fill-rule:nonzero;fill:rgb(0%,0%,0%);fill-opacity:1;" />
<path d="M 295.078125 31.5625 C 295.078125 35.710938 291.710938 39.078125 287.5625 39.078125 C 283.410156 39.078125 280.046875 35.710938 280.046875 31.5625 C 280.046875 27.410156 283.410156 24.046875 287.5625 24.046875 C 291.710938 24.046875 295.078125 27.410156 295.078125 31.5625 Z M 295.078125 31.5625 " style=" stroke:none;fill-rule:nonzero;fill:rgb(0%,0%,0%);fill-opacity:1;" />
<path d="M 231.953125 31.5625 C 231.953125 35.710938 228.589844 39.078125 224.4375 39.078125 C 220.289062 39.078125 216.921875 35.710938 216.921875 31.5625 C 216.921875 27.410156 220.289062 24.046875 224.4375 24.046875 C 228.589844 24.046875 231.953125 27.410156 231.953125 31.5625 Z M 231.953125 31.5625 " style=" stroke:none;fill-rule:nonzero;fill:rgb(0%,0%,0%);fill-opacity:1;" />
<path d="M 272.03125 368.71875 L 239.96875 368.71875 C 235.820312 368.71875 232.453125 372.082031 232.453125 376.234375 C 232.453125 380.386719 235.820312 383.75 239.96875 383.75 L 272.03125 383.75 C 276.179688 383.75 279.546875 380.386719 279.546875 376.234375 C 279.546875 372.082031 276.179688 368.71875 272.03125 368.71875 Z M 272.03125 368.71875 " style=" stroke:none;fill-rule:nonzero;fill:rgb(0%,0%,0%);fill-opacity:1;" />
<path d="M 408.296875 199.390625 C 434.539062 199.390625 455.890625 178.039062 455.890625 151.796875 C 455.890625 125.554688 434.539062 104.203125 408.296875 104.203125 C 382.054688 104.203125 360.703125 125.554688 360.703125 151.796875 C 360.703125 178.039062 382.054688 199.390625 408.296875 199.390625 Z M 408.296875 119.234375 C 426.253906 119.234375 440.859375 133.839844 440.859375 151.796875 C 440.859375 169.753906 426.253906 184.359375 408.296875 184.359375 C 390.34375 184.359375 375.734375 169.753906 375.734375 151.796875 C 375.734375 133.839844 390.34375 119.234375 408.296875 119.234375 Z M 408.296875 119.234375 " style=" stroke:none;fill-rule:nonzero;fill:rgb(0%,0%,0%);fill-opacity:1;" />
<path d="M 408.296875 208.40625 C 404.148438 208.40625 400.78125 211.769531 400.78125 215.921875 L 400.78125 223.9375 C 400.78125 228.089844 404.148438 231.453125 408.296875 231.453125 C 412.449219 231.453125 415.8125 228.089844 415.8125 223.9375 L 415.8125 215.921875 C 415.8125 211.769531 412.449219 208.40625 408.296875 208.40625 Z M 408.296875 208.40625 " style=" stroke:none;fill-rule:nonzero;fill:rgb(0%,0%,0%);fill-opacity:1;" />
<path d="M 408.296875 95.1875 C 412.449219 95.1875 415.8125 91.824219 415.8125 87.671875 L 415.8125 79.65625 C 415.8125 75.503906 412.449219 72.140625 408.296875 72.140625 C 404.148438 72.140625 400.78125 75.503906 400.78125 79.65625 L 400.78125 87.671875 C 400.78125 91.824219 404.148438 95.1875 408.296875 95.1875 Z M 408.296875 95.1875 " style=" stroke:none;fill-rule:nonzero;fill:rgb(0%,0%,0%);fill-opacity:1;" />
<path d="M 357.640625 111.765625 C 360.695312 114.820312 365.855469 114.617188 368.667969 111.335938 C 371.183594 108.394531 371.003906 103.875 368.265625 101.140625 L 362.597656 95.472656 C 359.664062 92.539062 354.90625 92.535156 351.972656 95.472656 C 349.035156 98.40625 349.035156 103.164062 351.972656 106.097656 Z M 357.640625 111.765625 " style=" stroke:none;fill-rule:nonzero;fill:rgb(0%,0%,0%);fill-opacity:1;" />
<path d="M 336.15625 159.3125 L 344.171875 159.3125 C 348.324219 159.3125 351.6875 155.949219 351.6875 151.796875 C 351.6875 147.644531 348.324219 144.28125 344.171875 144.28125 L 336.15625 144.28125 C 332.007812 144.28125 328.640625 147.644531 328.640625 151.796875 C 328.640625 155.949219 332.007812 159.3125 336.15625 159.3125 Z M 336.15625 159.3125 " style=" stroke:none;fill-rule:nonzero;fill:rgb(0%,0%,0%);fill-opacity:1;" />
<path d="M 357.640625 191.828125 L 351.972656 197.496094 C 349.035156 200.429688 349.039062 205.1875 351.972656 208.121094 C 354.867188 211.015625 359.703125 211.015625 362.597656 208.121094 L 368.265625 202.453125 C 371.203125 199.519531 371.199219 194.757812 368.265625 191.824219 C 365.332031 188.890625 360.574219 188.890625 357.640625 191.828125 Z M 357.640625 191.828125 " style=" stroke:none;fill-rule:nonzero;fill:rgb(0%,0%,0%);fill-opacity:1;" />
<path d="M 458.957031 191.828125 C 456.019531 188.890625 451.261719 188.890625 448.328125 191.824219 C 445.394531 194.761719 445.394531 199.519531 448.328125 202.453125 L 453.996094 208.121094 C 456.890625 211.015625 461.726562 211.015625 464.625 208.121094 C 467.558594 205.1875 467.558594 200.429688 464.625 197.496094 Z M 458.957031 191.828125 " style=" stroke:none;fill-rule:nonzero;fill:rgb(0%,0%,0%);fill-opacity:1;" />
<path d="M 472.421875 159.3125 L 480.4375 159.3125 C 484.589844 159.3125 487.953125 155.949219 487.953125 151.796875 C 487.953125 147.644531 484.589844 144.28125 480.4375 144.28125 L 472.421875 144.28125 C 468.273438 144.28125 464.90625 147.644531 464.90625 151.796875 C 464.90625 155.949219 468.273438 159.3125 472.421875 159.3125 Z M 472.421875 159.3125 " style=" stroke:none;fill-rule:nonzero;fill:rgb(0%,0%,0%);fill-opacity:1;" />
<path d="M 453.640625 113.96875 C 455.5625 113.96875 457.488281 113.234375 458.957031 111.765625 L 464.625 106.097656 C 467.558594 103.164062 467.558594 98.40625 464.625 95.472656 C 461.6875 92.539062 456.929688 92.535156 453.996094 95.472656 L 448.328125 101.140625 C 445.394531 104.074219 445.394531 108.832031 448.328125 111.765625 C 449.796875 113.234375 451.71875 113.96875 453.640625 113.96875 Z M 453.640625 113.96875 " style=" stroke:none;fill-rule:nonzero;fill:rgb(0%,0%,0%);fill-opacity:1;" />
<path d="M 39.578125 103.203125 L 152.296875 103.203125 L 152.296875 111.71875 C 152.296875 115.871094 155.660156 119.234375 159.8125 119.234375 C 163.960938 119.234375 167.328125 115.871094 167.328125 111.71875 L 167.328125 103.203125 L 191.875 103.203125 C 196.023438 103.203125 199.390625 99.839844 199.390625 95.6875 C 199.390625 91.535156 196.023438 88.171875 191.875 88.171875 L 167.328125 88.171875 L 167.328125 79.65625 C 167.328125 75.503906 163.960938 72.140625 159.8125 72.140625 C 155.660156 72.140625 152.296875 75.503906 152.296875 79.65625 L 152.296875 88.171875 L 39.578125 88.171875 C 35.425781 88.171875 32.0625 91.535156 32.0625 95.6875 C 32.0625 99.839844 35.425781 103.203125 39.578125 103.203125 Z M 39.578125 103.203125 " style=" stroke:none;fill-rule:nonzero;fill:rgb(0%,0%,0%);fill-opacity:1;" />
<path d="M 191.875 151.296875 C 196.023438 151.296875 199.390625 147.933594 199.390625 143.78125 C 199.390625 139.628906 196.023438 136.265625 191.875 136.265625 L 79.15625 136.265625 L 79.15625 127.75 C 79.15625 123.597656 75.789062 120.234375 71.640625 120.234375 C 67.488281 120.234375 64.125 123.597656 64.125 127.75 L 64.125 136.265625 L 39.578125 136.265625 C 35.425781 136.265625 32.0625 139.628906 32.0625 143.78125 C 32.0625 147.933594 35.425781 151.296875 39.578125 151.296875 L 64.125 151.296875 L 64.125 159.8125 C 64.125 163.964844 67.488281 167.328125 71.640625 167.328125 C 75.789062 167.328125 79.15625 163.964844 79.15625 159.8125 L 79.15625 151.296875 Z M 191.875 151.296875 " style=" stroke:none;fill-rule:nonzero;fill:rgb(0%,0%,0%);fill-opacity:1;" />
</g>
</svg>